<svg width="147" height="147" viewBox="0 0 147 147" fill="none" xmlns="http://www.w3.org/2000/svg">
<path d="M45.6112 73.1049L45.6634 73.0797L45.6112 73.1049ZM45.6112 73.1049L44.0644 73.8532L45.6112 73.1049ZM95.3174 51.9283L95.3041 51.9415L95.2874 51.9582C95.2973 51.9481 95.3074 51.9382 95.3174 51.9283ZM95.3174 51.9283L93.0992 49.6968M95.3174 51.9283L98.2592 54.8875L98.265 54.8934L98.2889 54.9175L98.2892 54.9178L101.207 57.8527M93.0992 49.6968L101.207 57.8527M93.0992 49.6968L98.2591 54.8448L98.2805 54.8661L98.2863 54.8719L98.2952 54.8808L98.3079 54.8934L98.3386 54.924L101.24 57.819L101.207 57.8527M93.0992 49.6968L101.207 57.8527" stroke="#52C3FF" stroke-width="23"/>
</svg>
