<svg width="25" height="25" viewBox="0 0 25 25" fill="none" xmlns="http://www.w3.org/2000/svg">
<g clip-path="url(#clip0_541_1423)">
<path d="M12.2296 2.66127C15.4972 2.66127 15.8842 2.6756 17.1692 2.73293C18.3635 2.78548 19.0084 2.98612 19.4384 3.15332C20.0069 3.37307 20.4177 3.64059 20.8429 4.06576C21.2728 4.49571 21.5356 4.90177 21.7553 5.47026C21.9225 5.9002 22.1232 6.5499 22.1757 7.73942C22.233 9.02926 22.2474 9.41621 22.2474 12.679C22.2474 15.9466 22.233 16.3336 22.1757 17.6186C22.1232 18.8129 21.9225 19.4579 21.7553 19.8878C21.5356 20.4563 21.268 20.8671 20.8429 21.2923C20.4129 21.7223 20.0069 21.985 19.4384 22.2048C19.0084 22.372 18.3587 22.5726 17.1692 22.6251C15.8794 22.6825 15.4924 22.6968 12.2296 22.6968C8.96201 22.6968 8.57506 22.6825 7.28999 22.6251C6.09569 22.5726 5.45077 22.372 5.02083 22.2048C4.45234 21.985 4.0415 21.7175 3.61633 21.2923C3.18639 20.8624 2.92364 20.4563 2.70389 19.8878C2.53669 19.4579 2.33605 18.8082 2.2835 17.6186C2.22617 16.3288 2.21184 15.9419 2.21184 12.679C2.21184 9.41144 2.22617 9.02448 2.2835 7.73942C2.33605 6.54512 2.53669 5.9002 2.70389 5.47026C2.92364 4.90177 3.19116 4.49093 3.61633 4.06576C4.04628 3.63582 4.45234 3.37307 5.02083 3.15332C5.45077 2.98612 6.10047 2.78548 7.28999 2.73293C8.57506 2.6756 8.96201 2.66127 12.2296 2.66127ZM12.2296 0.458984C8.90946 0.458984 8.49384 0.473316 7.18967 0.530642C5.89027 0.587968 4.99694 0.798165 4.22304 1.09913C3.41569 1.41442 2.73255 1.83004 2.05419 2.51318C1.37105 3.19154 0.955438 3.87468 0.640143 4.67724C0.33918 5.45592 0.128984 6.34448 0.0716578 7.64388C0.0143316 8.95283 0 9.36844 0 12.6886C0 16.0087 0.0143316 16.4244 0.0716578 17.7285C0.128984 19.0279 0.33918 19.9213 0.640143 20.6952C0.955438 21.5025 1.37105 22.1856 2.05419 22.864C2.73255 23.5424 3.41569 23.9628 4.21826 24.2733C4.99694 24.5742 5.8855 24.7844 7.18489 24.8418C8.48907 24.8991 8.90468 24.9134 12.2248 24.9134C15.545 24.9134 15.9606 24.8991 17.2648 24.8418C18.5642 24.7844 19.4575 24.5742 20.2314 24.2733C21.034 23.9628 21.7171 23.5424 22.3955 22.864C23.0738 22.1856 23.4942 21.5025 23.8047 20.6999C24.1057 19.9213 24.3159 19.0327 24.3732 17.7333C24.4305 16.4291 24.4449 16.0135 24.4449 12.6934C24.4449 9.37322 24.4305 8.9576 24.3732 7.65343C24.3159 6.35404 24.1057 5.4607 23.8047 4.6868C23.5038 3.87467 23.0882 3.19154 22.405 2.51318C21.7267 1.83481 21.0435 1.41442 20.241 1.1039C19.4623 0.802942 18.5737 0.592746 17.2743 0.535419C15.9654 0.473316 15.5498 0.458984 12.2296 0.458984Z" fill="white"/>
<path d="M12.2296 6.40674C8.76134 6.40674 5.94757 9.2205 5.94757 12.6887C5.94757 16.157 8.76134 18.9707 12.2296 18.9707C15.6978 18.9707 18.5116 16.157 18.5116 12.6887C18.5116 9.2205 15.6978 6.40674 12.2296 6.40674ZM12.2296 16.7637C9.97952 16.7637 8.15463 14.9388 8.15463 12.6887C8.15463 10.4387 9.97952 8.6138 12.2296 8.6138C14.4796 8.6138 16.3045 10.4387 16.3045 12.6887C16.3045 14.9388 14.4796 16.7637 12.2296 16.7637Z" fill="white"/>
<path d="M20.2266 6.15801C20.2266 6.97013 19.5673 7.6246 18.76 7.6246C17.9479 7.6246 17.2934 6.96535 17.2934 6.15801C17.2934 5.34588 17.9526 4.69141 18.76 4.69141C19.5673 4.69141 20.2266 5.35066 20.2266 6.15801Z" fill="white"/>
</g>
<defs>
<clipPath id="clip0_541_1423">
<rect width="24.4592" height="24.4592" fill="white" transform="translate(0 0.458984)"/>
</clipPath>
</defs>
</svg>
