<svg width="39" height="39" viewBox="0 0 39 39" fill="none" xmlns="http://www.w3.org/2000/svg">
<g filter="url(#filter0_d_0_1)">
<circle cx="19.5" cy="18.5" r="15.5" fill="#E3FFE9"/>
<circle cx="19.5" cy="18.5" r="15.35" stroke="black" stroke-width="0.3"/>
</g>
<path fill-rule="evenodd" clip-rule="evenodd" d="M11 10.8086C12.8148 11.0408 14.6119 11.5052 16.2674 12.2913C17.5739 12.9229 18.8159 13.7951 19.6124 15.0279C20.1682 15.8529 20.3732 16.8737 20.3241 17.8557C20.2851 18.5524 20.069 19.2658 19.5903 19.7911C19.2743 20.1406 18.8456 20.3585 18.427 20.562C17.5061 18.1563 16.1208 15.912 14.2933 14.0856C13.9468 13.7428 13.5935 13.4034 13.1978 13.1163C13.8103 13.7563 14.4119 14.4099 14.9253 15.1343C15.576 16.0159 16.0946 16.9827 16.5927 17.9554C17.7001 20.1229 18.5745 22.4069 19.248 24.7442C19.9208 23.2378 20.7028 21.7736 21.667 20.4311C22.6811 19.0421 23.8919 17.7097 25.4771 16.9683C26.0159 16.7868 26.5311 16.5115 27.1047 16.4558C26.1083 16.3215 25.117 16.6922 24.2782 17.2039C23.2734 17.822 22.4566 18.6942 21.7441 19.6222C21.5034 19.0649 21.5322 18.4139 21.8093 17.8752C22.2922 16.8965 23.2666 16.2261 24.3172 15.9795C25.8668 15.6038 27.4969 15.8428 29 16.3088C28.7517 16.4228 28.5196 16.574 28.3281 16.7699C27.691 17.4065 27.2343 18.191 26.803 18.9737C26.2955 19.8468 25.4855 20.6008 24.4849 20.8499C23.7266 21.0433 22.9226 20.8634 22.2473 20.4969C20.9095 22.3748 19.9055 24.479 19.1955 26.6668C18.9422 27.4377 18.8431 28.2635 18.4923 28.9998C18.3457 28.928 18.1924 28.8259 18.1746 28.6477C17.8179 26.1289 17.3154 23.6296 16.6673 21.1682C14.9118 21.3185 13.1037 20.2411 12.4802 18.5861C11.9379 17.1583 12.1252 15.6046 11.9642 14.1169C11.8235 12.9727 11.494 11.8514 11 10.8086Z" fill="#47A348"/>
<defs>
<filter id="filter0_d_0_1" x="0" y="0" width="39" height="39" filterUnits="userSpaceOnUse" color-interpolation-filters="sRGB">
<feFlood flood-opacity="0" result="BackgroundImageFix"/>
<feColorMatrix in="SourceAlpha" type="matrix" values="0 0 0 0 0 0 0 0 0 0 0 0 0 0 0 0 0 0 127 0" result="hardAlpha"/>
<feOffset dy="1"/>
<feGaussianBlur stdDeviation="2"/>
<feComposite in2="hardAlpha" operator="out"/>
<feColorMatrix type="matrix" values="0 0 0 0 0 0 0 0 0 0 0 0 0 0 0 0 0 0 0.25 0"/>
<feBlend mode="normal" in2="BackgroundImageFix" result="effect1_dropShadow_0_1"/>
<feBlend mode="normal" in="SourceGraphic" in2="effect1_dropShadow_0_1" result="shape"/>
</filter>
</defs>
</svg>
