<svg width="128" height="118" viewBox="0 0 128 118" fill="none" xmlns="http://www.w3.org/2000/svg">
<rect x="3.15829" y="3.15829" width="121.283" height="111.683" rx="19.892" fill="#2F92CD"/>
<path d="M64.6079 66.7494L60.4689 66.5632C60.5478 65.1397 60.7263 63.9808 61.0044 63.0865C61.2979 62.1781 61.7436 61.3583 62.3414 60.627C62.9392 59.8958 63.7271 59.0691 64.7051 58.1468C65.4189 57.4803 66.0713 56.8556 66.6624 56.2727C67.269 55.6757 67.7664 55.0291 68.1544 54.333C68.5432 53.6221 68.7603 52.7623 68.8057 51.7535C68.8517 50.7299 68.706 49.8388 68.3685 49.0804C68.0458 48.3226 67.5374 47.7274 66.8434 47.2948C66.1642 46.8629 65.3053 46.6236 64.2668 46.5769C63.4064 46.5381 62.5835 46.6572 61.798 46.934C61.0126 47.2109 60.3678 47.665 59.8637 48.2964C59.3603 48.9129 59.0778 49.7401 59.0162 50.7779L54.8995 50.5926C55.0046 48.9176 55.4847 47.4973 56.3399 46.3317C57.2099 45.1667 58.349 44.2964 59.7574 43.7205C61.1658 43.1447 62.723 42.8951 64.429 42.9719C66.3131 43.0567 67.9 43.47 69.1896 44.2118C70.494 44.9543 71.4662 45.9791 72.106 47.2863C72.7466 48.5787 73.0278 50.0927 72.9497 51.8285C72.8896 53.1636 72.5598 54.3826 71.9601 55.4854C71.376 56.574 70.6391 57.5888 69.7494 58.5299C68.8598 59.471 67.9202 60.3652 66.9307 61.2126C66.0807 61.9325 65.4934 62.7608 65.1689 63.6976C64.8443 64.6343 64.6573 65.6516 64.6079 66.7494ZM59.9735 73.6093C60.0035 72.9417 60.2365 72.3873 60.6726 71.9461C61.1087 71.5049 61.7199 71.302 62.5061 71.3374C63.3072 71.3734 63.9051 71.6307 64.2998 72.1093C64.6945 72.5879 64.8768 73.161 64.8468 73.8286C64.8181 74.4665 64.5857 75.006 64.1496 75.4472C63.7136 75.8884 63.095 76.091 62.2939 76.055C61.5076 76.0196 60.9171 75.7626 60.5224 75.284C60.1277 74.8055 59.9448 74.2472 59.9735 73.6093Z" fill="white"/>
<rect x="3.15829" y="3.15829" width="121.283" height="111.683" rx="19.892" stroke="white" stroke-width="5.68342"/>
</svg>
