<svg width="27" height="28" viewBox="0 0 27 28" fill="none" xmlns="http://www.w3.org/2000/svg">
<path fill-rule="evenodd" clip-rule="evenodd" d="M17.6234 1.10529C15.971 0.584129 14.2156 0.384495 12.4852 0.510918C10.9143 0.624886 9.36332 1.01057 7.92953 1.65174C5.77194 2.60839 3.88711 4.14131 2.51287 6.03274C1.02761 8.06832 0.149353 10.5262 0.022187 13.0278C-0.0773175 14.7147 0.158958 16.4212 0.709114 18.0225C1.52705 20.4192 3.06803 22.5688 5.07886 24.1447C7.26988 25.8716 10.0249 26.9067 12.8329 27.0211C13.0065 27.0474 13.1818 27.0467 13.3568 27.0459C13.4099 27.0457 13.463 27.0455 13.516 27.046C13.5886 27.0451 13.6613 27.0454 13.734 27.0457C13.949 27.0465 14.1641 27.0473 14.3777 27.0188C15.6909 26.986 16.9998 26.8041 18.2795 26.5112C18.344 26.4973 18.4084 26.4832 18.4728 26.4692C19.1571 26.32 19.8433 26.1705 20.542 26.1063C21.0176 26.0897 21.4956 26.0886 21.9685 26.1452C23.1829 26.278 24.3839 26.506 25.5803 26.7467C25.9894 26.8388 26.442 26.6829 26.7109 26.3675C26.9095 26.1459 26.9971 25.8482 26.9998 25.5568C27.0001 22.9323 27 20.3076 26.9999 17.6828C26.9999 16.3704 26.9998 15.058 26.9998 13.7456C26.9806 13.0671 26.9441 12.3878 26.8342 11.7164C26.4497 9.22197 25.3136 6.84674 23.6105 4.95834C22.015 3.17748 19.925 1.82759 17.6234 1.10529ZM7.81412 4.02885C9.39506 3.12955 11.2011 2.62311 13.0256 2.54952C14.6265 2.49027 16.2417 2.75368 17.7285 3.34353C20.0651 4.25943 22.0671 5.96405 23.3311 8.09965C24.6634 10.3247 25.1648 13.0105 24.7399 15.5563C24.3204 18.1779 22.9035 20.6271 20.8354 22.3329C19.9195 23.0948 18.8791 23.7115 17.7677 24.1556C16.1714 24.7923 14.426 25.0674 12.7087 24.9462C9.99477 24.7806 7.36462 23.599 5.44753 21.7064C3.66259 19.9682 2.49159 17.6338 2.18424 15.1823C1.91992 13.1554 2.22804 11.0579 3.07786 9.1914C4.0487 7.03657 5.73375 5.20175 7.81412 4.02885Z" fill="#A49EB5"/>
<path fill-rule="evenodd" clip-rule="evenodd" d="M12.9201 5.70056C14.6243 5.56998 16.3631 5.99793 17.8161 6.87911C19.4628 7.86596 20.7314 9.4419 21.3249 11.245C21.4033 11.5043 21.5151 11.7669 21.4878 12.0436C21.4636 12.3436 21.2946 12.6277 21.0425 12.7983C20.7198 13.0232 20.2626 13.0455 19.9196 12.8511C19.6641 12.7115 19.4778 12.4624 19.4105 12.1836C19.0813 10.9861 18.3609 9.89815 17.3816 9.11584C16.2625 8.21164 14.8087 7.71123 13.3588 7.75388C12.2135 7.77539 11.0783 8.13088 10.1255 8.75431C9.30908 9.28717 8.62907 10.0178 8.15575 10.8601C7.58523 11.8711 5.21789 13.1582 5.3051 14.3115C5.40115 15.6746 8.0793 16.8902 9.03631 17.8839C9.93915 18.8409 11.1697 19.4915 12.4782 19.7127C13.3623 19.8678 14.2801 19.8161 15.1445 19.5779C16.4308 19.2292 17.5887 18.4492 18.3897 17.402C18.7443 16.9431 19.0279 16.4329 19.238 15.8955C19.3675 15.5638 19.6844 15.3113 20.0425 15.2592C20.3664 15.2022 20.7133 15.3105 20.948 15.5366C21.2427 15.817 21.3491 16.271 21.1997 16.6476C20.7248 17.8771 19.9407 18.9922 18.9322 19.858C17.2053 21.3667 14.803 22.1045 12.5105 21.809C11.0099 21.6298 9.56649 21.0278 8.38549 20.1017C7.31438 19.2681 6.4634 18.1646 5.93515 16.9268C5.29125 15.4336 5.1199 13.7486 5.45299 12.1602C5.70156 10.9597 6.23289 9.81777 6.99051 8.84564C7.7489 7.87162 8.73357 7.0678 9.85232 6.52324C10.8078 6.05756 11.8559 5.77377 12.9201 5.70056Z" fill="#A49EB5"/>
<path fill-rule="evenodd" clip-rule="evenodd" d="M13.1137 10.5644C13.7288 10.4957 14.3889 10.6569 14.8572 11.0659C15.211 11.3746 15.4108 11.8449 15.3751 12.3098C15.3513 12.8853 14.9402 13.3766 14.4442 13.648C14.4457 13.6582 14.4496 13.6782 14.4511 13.6884C14.9056 13.9155 15.3017 14.2895 15.4719 14.7699C15.6236 15.1903 15.5514 15.6704 15.3209 16.0496C15.0965 16.4213 14.7177 16.6851 14.307 16.8266C13.8741 16.9814 13.403 17.0002 12.9489 16.9482C12.3646 16.8685 11.7802 16.6149 11.4072 16.153C11.3453 16.0847 11.3645 15.9809 11.4275 15.9206C11.5939 15.7455 11.7729 15.582 11.9416 15.4085C11.9892 15.3684 12.03 15.305 12.0987 15.3024C12.2009 15.2832 12.2762 15.3635 12.3557 15.4111C12.6128 15.5768 12.8982 15.7145 13.2056 15.7564C13.6247 15.7817 14.0646 15.4556 14.0823 15.0284C14.0865 14.7258 13.8406 14.4782 13.5682 14.3741C13.2002 14.2239 12.7926 14.2759 12.4049 14.2563C12.3181 14.2574 12.2731 14.1605 12.2766 14.0865C12.2743 13.8344 12.272 13.5816 12.2778 13.3295C12.2739 13.2487 12.3354 13.1732 12.4195 13.1695C12.695 13.1555 12.9727 13.1808 13.2474 13.1457C13.4392 13.1121 13.6305 13.0389 13.7753 12.9076C13.9536 12.7408 14.0212 12.469 13.9328 12.2419C13.8464 11.9841 13.5932 11.803 13.3239 11.7679C12.9893 11.7256 12.6493 11.8686 12.4257 12.1117C12.3577 12.2019 12.209 12.2128 12.1368 12.1226C11.95 11.9388 11.7564 11.7615 11.5747 11.5735C11.4952 11.4969 11.5509 11.3818 11.6235 11.3237C12.0296 10.9361 12.5482 10.6433 13.1137 10.5644Z" fill="#FF0000"/>
</svg>
