<svg width="25" height="26" viewBox="0 0 25 26" fill="none" xmlns="http://www.w3.org/2000/svg">
<path d="M24.3708 18.71C24.2021 18.2478 23.8774 17.998 23.5089 17.7981C23.4402 17.7606 23.3777 17.7231 23.3215 17.6982C23.2091 17.6419 23.0966 17.5857 22.9842 17.5295C21.835 16.9174 20.9356 16.1554 20.3172 15.2435C20.1423 14.9875 19.9862 14.7126 19.8613 14.4316C19.8051 14.2817 19.8113 14.1942 19.8488 14.113C19.8863 14.0506 19.9362 14.0006 19.9987 13.9569C20.1986 13.8257 20.3984 13.6946 20.5358 13.6071C20.7794 13.4447 20.9793 13.3198 21.1042 13.2324C21.5726 12.9013 21.9037 12.5516 22.1098 12.1581C22.4033 11.6084 22.4408 10.9651 22.216 10.3843C21.9037 9.55981 21.1292 9.05389 20.1861 9.05389C19.9862 9.05389 19.7926 9.07263 19.5927 9.11635C19.5427 9.12884 19.4865 9.14134 19.4366 9.15383C19.4428 8.5917 19.4303 7.99834 19.3803 7.41123C19.2055 5.35635 18.4809 4.28206 17.7314 3.42638C17.2505 2.88924 16.6884 2.43329 16.0576 2.07728C14.9208 1.42771 13.6279 1.09668 12.2226 1.09668C10.8173 1.09668 9.53064 1.42771 8.3939 2.07728C7.76306 2.43329 7.20094 2.88924 6.72001 3.42638C5.97051 4.28206 5.25223 5.3626 5.0711 7.41123C5.02114 7.99834 5.00864 8.5917 5.01489 9.15383C4.96492 9.14134 4.91496 9.12884 4.85874 9.11635C4.66512 9.07263 4.46526 9.05389 4.27163 9.05389C3.32851 9.05389 2.55402 9.56605 2.24173 10.3843C2.01688 10.9651 2.05436 11.6084 2.34791 12.1581C2.55402 12.5516 2.88506 12.9013 3.35349 13.2324C3.47841 13.3198 3.67203 13.4447 3.92187 13.6071C4.05303 13.6946 4.24665 13.8195 4.44027 13.9444C4.50898 13.9881 4.56519 14.0443 4.60891 14.113C4.64638 14.1942 4.65263 14.2817 4.59017 14.4441C4.46525 14.7189 4.31535 14.9875 4.14047 15.2373C3.53462 16.1242 2.6602 16.8799 1.54844 17.4858C0.961333 17.7981 0.349239 18.0042 0.0869138 18.71C-0.106708 19.2409 0.0182094 19.8405 0.511632 20.3526C0.692761 20.54 0.90512 20.7024 1.13622 20.8273C1.61715 21.0896 2.12931 21.2958 2.66645 21.4394C2.77888 21.4706 2.87881 21.5144 2.9725 21.5768C3.15363 21.733 3.12864 21.9703 3.36599 22.3201C3.48466 22.5012 3.6408 22.6574 3.81569 22.7823C4.3216 23.132 4.88997 23.1508 5.48957 23.1758C6.03296 23.1945 6.64506 23.2195 7.35084 23.4506C7.64439 23.5443 7.94419 23.7316 8.29396 23.9502C9.13715 24.4687 10.2864 25.1744 12.2164 25.1744C14.1463 25.1744 15.3018 24.4624 16.1512 23.944C16.501 23.7316 16.8008 23.5443 17.0819 23.4506C17.7814 23.2195 18.3997 23.1945 18.9431 23.1758C19.5427 23.1508 20.1111 23.132 20.617 22.7823C20.8294 22.6324 21.0043 22.445 21.1292 22.2201C21.3041 21.9266 21.2978 21.7205 21.4602 21.5768C21.5477 21.5144 21.6476 21.4706 21.7475 21.4457C22.2847 21.302 22.8093 21.0959 23.2965 20.8273C23.5401 20.6962 23.7649 20.5213 23.9523 20.3152L23.9586 20.3089C24.4457 19.8092 24.5644 19.2221 24.3708 18.71ZM22.6594 19.6281C21.6164 20.2027 20.9168 20.1403 20.3797 20.49C19.9175 20.7836 20.1923 21.4207 19.8613 21.6518C19.4491 21.9328 18.2374 21.633 16.6759 22.1514C15.383 22.5762 14.5648 23.8066 12.2413 23.8066C9.91788 23.8066 9.11841 22.5824 7.80679 22.1514C6.24532 21.633 5.03363 21.9391 4.6214 21.6518C4.29037 21.4207 4.55894 20.7836 4.103 20.49C3.55961 20.1403 2.86632 20.2027 1.82326 19.6281C1.15495 19.2596 1.53595 19.0348 1.75456 18.9286C5.53954 17.0985 6.14539 14.2692 6.17037 14.0568C6.2016 13.8007 6.23908 13.6009 5.95801 13.3448C5.68944 13.095 4.49024 12.3517 4.15296 12.1206C3.60333 11.7334 3.35974 11.3524 3.54087 10.8777C3.66579 10.5529 3.97183 10.428 4.29037 10.428C4.39031 10.428 4.49024 10.4405 4.59017 10.4592C5.19602 10.5904 5.78313 10.8902 6.12041 10.9776C6.16413 10.9901 6.2016 10.9964 6.24532 10.9964C6.42645 10.9964 6.48891 10.9027 6.47642 10.6966C6.43894 10.0345 6.34526 8.74785 6.45144 7.5424C6.59509 5.88725 7.12599 5.06279 7.76306 4.33828C8.06911 3.98851 9.49941 2.47701 12.2413 2.47701C14.9833 2.47701 16.4136 3.98226 16.7196 4.33203C17.3567 5.05655 17.8876 5.881 18.0312 7.53615C18.1374 8.7416 18.0437 10.0282 18 10.6903C17.9875 10.9089 18.05 10.9901 18.2311 10.9901C18.2748 10.9901 18.3123 10.9839 18.356 10.9714C18.6933 10.8902 19.2804 10.5841 19.8863 10.453C19.9862 10.428 20.0861 10.4217 20.1861 10.4217C20.5046 10.4217 20.8106 10.5467 20.9356 10.8714C21.1167 11.3461 20.8731 11.7271 20.3235 12.1144C19.9924 12.3455 18.7932 13.0887 18.5184 13.3385C18.2374 13.5946 18.2748 13.7945 18.3061 14.0506C18.331 14.2629 18.9369 17.0923 22.7219 18.9223C22.9467 19.0285 23.3215 19.2596 22.6594 19.6281Z" fill="white"/>
</svg>
