<svg width="34" height="34" viewBox="0 0 34 34" fill="none" xmlns="http://www.w3.org/2000/svg">
<path d="M20.4636 9.14746C24.3974 10.6458 27.1925 14.4557 27.1925 18.9191C27.1925 19.505 27.1444 20.0796 27.0518 20.6392M13.0385 9.14746C9.10471 10.6458 6.30957 14.4557 6.30957 18.9191C6.30957 19.505 6.35773 20.0796 6.45029 20.6392M22.9824 27.3063C21.2431 28.6032 19.0866 29.3708 16.751 29.3708C14.4155 29.3708 12.259 28.6032 10.5197 27.3063" stroke="#A49EB5" stroke-width="1.82609"/>
<path d="M21 8.52167C21 10.7068 19.2286 12.4782 17.0435 12.4782C14.8584 12.4782 13.087 10.7068 13.087 8.52166C13.087 6.33654 14.8584 4.56514 17.0435 4.56514C19.2286 4.56514 21 6.33654 21 8.52167Z" fill="#FF0000" stroke="#FF003C" stroke-width="1.82609"/>
<path d="M29.7932 24.412C29.7932 26.6473 27.9831 28.4579 25.7522 28.4579C23.5212 28.4579 21.7111 26.6473 21.7111 24.412C21.7111 22.1767 23.5212 20.3662 25.7522 20.3662C27.9831 20.3662 29.7932 22.1767 29.7932 24.412Z" stroke="#056DFA" stroke-width="1.82609"/>
<path d="M11.787 24.412C11.787 26.6473 9.97689 28.4579 7.74593 28.4579C5.51498 28.4579 3.70491 26.6473 3.70491 24.412C3.70491 22.1767 5.51498 20.3662 7.74594 20.3662C9.97689 20.3662 11.787 22.1767 11.787 24.412Z" stroke="#92929D" stroke-width="1.82609"/>
</svg>
