<svg width="41" height="26" viewBox="0 0 41 26" fill="none" xmlns="http://www.w3.org/2000/svg">
<g filter="url(#filter0_d_0_1)">
<path d="M36.0625 4.5H33.25V3.6C33.25 2.64522 32.8549 1.72955 32.1517 1.05442C31.4484 0.379285 30.4946 0 29.5 0C28.5054 0 27.5516 0.379285 26.8483 1.05442C26.1451 1.72955 25.75 2.64522 25.75 3.6V4.5H22.9375C22.6889 4.5 22.4504 4.59482 22.2746 4.7636C22.0988 4.93239 22 5.1613 22 5.4V15.3C22 16.0161 22.2963 16.7028 22.8238 17.2092C23.3512 17.7155 24.0666 18 24.8125 18H34.1875C34.9334 18 35.6488 17.7155 36.1762 17.2092C36.7037 16.7028 37 16.0161 37 15.3V5.4C37 5.1613 36.9012 4.93239 36.7254 4.7636C36.5496 4.59482 36.3111 4.5 36.0625 4.5ZM27.625 3.6C27.625 3.12261 27.8225 2.66477 28.1742 2.32721C28.5258 1.98964 29.0027 1.8 29.5 1.8C29.9973 1.8 30.4742 1.98964 30.8258 2.32721C31.1775 2.66477 31.375 3.12261 31.375 3.6V4.5H27.625V3.6ZM35.125 15.3C35.125 15.5387 35.0262 15.7676 34.8504 15.9364C34.6746 16.1052 34.4361 16.2 34.1875 16.2H24.8125C24.5639 16.2 24.3254 16.1052 24.1496 15.9364C23.9738 15.7676 23.875 15.5387 23.875 15.3V6.3H25.75V7.2C25.75 7.43869 25.8488 7.66761 26.0246 7.8364C26.2004 8.00518 26.4389 8.1 26.6875 8.1C26.9361 8.1 27.1746 8.00518 27.3504 7.8364C27.5262 7.66761 27.625 7.43869 27.625 7.2V6.3H31.375V7.2C31.375 7.43869 31.4738 7.66761 31.6496 7.8364C31.8254 8.00518 32.0639 8.1 32.3125 8.1C32.5611 8.1 32.7996 8.00518 32.9754 7.8364C33.1512 7.66761 33.25 7.43869 33.25 7.2V6.3H35.125V15.3Z" fill="#24FF00"/>
</g>
<path d="M7.63186 11.0708L7.98541 11.4244L8.33897 11.0708L11.4261 7.98362C11.5321 7.87769 11.6673 7.87769 11.7732 7.98362C11.8791 8.08955 11.8791 8.22475 11.7732 8.33067L8.15894 11.9449C8.05301 12.0509 7.91781 12.0509 7.81189 11.9449L6.15535 10.2884C6.04943 10.1825 6.04943 10.0473 6.15535 9.94134C6.26128 9.83542 6.39648 9.83542 6.5024 9.94134L7.63186 11.0708ZM8.96427 1.93457C4.54679 1.93457 0.93457 5.54679 0.93457 9.96427C0.93457 14.3818 4.54679 17.994 8.96427 17.994C13.3818 17.994 16.994 14.3818 16.994 9.96427C16.994 5.54679 13.3818 1.93457 8.96427 1.93457Z" fill="#056DFA" stroke="white"/>
<defs>
<filter id="filter0_d_0_1" x="18" y="0" width="23" height="26" filterUnits="userSpaceOnUse" color-interpolation-filters="sRGB">
<feFlood flood-opacity="0" result="BackgroundImageFix"/>
<feColorMatrix in="SourceAlpha" type="matrix" values="0 0 0 0 0 0 0 0 0 0 0 0 0 0 0 0 0 0 127 0" result="hardAlpha"/>
<feOffset dy="4"/>
<feGaussianBlur stdDeviation="2"/>
<feComposite in2="hardAlpha" operator="out"/>
<feColorMatrix type="matrix" values="0 0 0 0 0 0 0 0 0 0 0 0 0 0 0 0 0 0 0.25 0"/>
<feBlend mode="normal" in2="BackgroundImageFix" result="effect1_dropShadow_0_1"/>
<feBlend mode="normal" in="SourceGraphic" in2="effect1_dropShadow_0_1" result="shape"/>
</filter>
</defs>
</svg>
